<?xml version="1.0" encoding="utf-8"?>
<!-- Generator: Adobe Illustrator 19.0.0, SVG Export Plug-In . SVG Version: 6.00 Build 0)  -->
<svg version="1.1" id="Layer_1" xmlns="http://www.w3.org/2000/svg" xmlns:xlink="http://www.w3.org/1999/xlink" x="0px" y="0px"
	 viewBox="0 0 100 100" style="enable-background:new 0 0 100 100;" xml:space="preserve">
<style type="text/css">
	.st0{fill:none;stroke:#0EB89A;stroke-width:2;stroke-miterlimit:10;}
</style>
<path class="st0" d="M42.8,31.9c0,0,17-17.9,39.5-14.6c0,0,3.9,22.2-14.6,39.5c0,0,2.7,10.3-1.2,14c-3.9,3.6-20,14-20,14l-1.8-17
	c0,0-12.4-3.3-12.7-13.4l-17-1.8l13.4-18.8C28.2,33.7,33.7,28.6,42.8,31.9z"/>
<circle class="st0" cx="62.5" cy="37.1" r="7"/>
<polyline class="st0" points="26.4,58.6 16.1,67.7 25.2,67.7 21.6,78.7 31.9,75 31.3,82.9 41,73.2 "/>
</svg>
