<?xml version="1.0" encoding="utf-8"?>
<!-- Generator: Adobe Illustrator 19.0.0, SVG Export Plug-In . SVG Version: 6.00 Build 0)  -->
<svg version="1.1" id="Layer_1" xmlns="http://www.w3.org/2000/svg" xmlns:xlink="http://www.w3.org/1999/xlink" x="0px" y="0px"
	 viewBox="0 0 100 100" style="enable-background:new 0 0 100 100;" xml:space="preserve">
<style type="text/css">
	.st0{fill:#FFFFFF;stroke:#0EB89A;stroke-width:2;stroke-miterlimit:10;}
</style>
<g>
	<g>
		<g>
			<path id="XMLID_6_" class="st0" d="M74.7,68.6c10.5,0,20.9,0,20.9-0.1c0-9-5.4-16.7-13.1-20c2.4-2.6,3.9-6.3,3.9-10.5
				c0-8-5.5-14.4-12.3-14.4c-3.7,0-7,1.9-9.3,4.9"/>
			<path id="XMLID_5_" class="st0" d="M63.1,31.4c2-4.7,6.2-7.9,11-7.9c6.8,0,12.3,6.5,12.3,14.4s-5.5,14.4-12.3,14.4
				c-1.7,0-3.3-0.4-4.8-1.1"/>
		</g>
		<g>
			<path id="XMLID_4_" class="st0" d="M25.3,68.6c-10.5,0-20.9,0-20.9-0.1c0-9,5.4-16.7,13.1-20c-2.4-2.6-3.9-6.3-3.9-10.5
				c0-8,5.5-14.4,12.3-14.4c3.7,0,7,1.9,9.3,4.9"/>
			<path id="XMLID_3_" class="st0" d="M36.9,31.4c-2-4.7-6.2-7.9-11-7.9c-6.8,0-12.3,6.5-12.3,14.4s5.5,14.4,12.3,14.4
				c1.7,0,3.3-0.4,4.8-1.1"/>
		</g>
	</g>
	<g>
		<path id="XMLID_2_" class="st0" d="M58.5,55.5c2.4-2.7,3.9-6.6,3.9-10.9c0-8.3-5.6-15-12.4-15s-12.4,6.7-12.4,15
			c0,4.3,1.5,8.2,3.9,10.9C33.7,58.9,28.3,67,28.3,76.4c0,0.2,43.5,0.2,43.5,0C71.7,67,66.3,58.9,58.5,55.5z"/>
		<ellipse id="XMLID_1_" class="st0" cx="50" cy="44.6" rx="12.4" ry="15"/>
	</g>
</g>
</svg>
