<?xml version="1.0" encoding="utf-8"?>
<!-- Generator: Adobe Illustrator 19.0.0, SVG Export Plug-In . SVG Version: 6.00 Build 0)  -->
<svg version="1.1" id="Layer_1" xmlns="http://www.w3.org/2000/svg" xmlns:xlink="http://www.w3.org/1999/xlink" x="0px" y="0px"
	 viewBox="0 0 32 32" style="enable-background:new 0 0 32 32;" xml:space="preserve">
<style type="text/css">
	.st0{fill:#F26248;}
</style>
<g>
	<path class="st0" d="M26.3,5.7h-1.8v2.2c0,1.2-1.2,2.1-2.5,2.1c-1.3,0-2.6-0.9-2.6-2.1V5.7h-6.9v2.2c0,1.2-1.3,2.1-2.6,2.1
		S7.4,9.1,7.4,7.9V5.7H5.7C4.7,5.7,4,6.4,4,7.3v19.2C4,27.3,4.7,28,5.7,28h20.7c0.9,0,1.7-0.7,1.7-1.6V7.3C28,6.4,27.3,5.7,26.3,5.7
		z M25.4,24.8c0,0.4-0.3,0.6-0.7,0.6l-17.5,0c-0.4,0-0.7-0.3-0.7-0.7V12.4c0-0.4,0.3-0.7,0.7-0.7h17.4c0.4,0,0.7,0.3,0.7,0.6V24.8z"
		/>
	<path id="XMLID_36_" class="st0" d="M11.7,7.4c0,0.9-0.8,1.7-1.7,1.7l0,0c-0.9,0-1.7-0.8-1.7-1.7V5.7C8.3,4.8,9.1,4,10,4l0,0
		c0.9,0,1.7,0.8,1.7,1.7V7.4z"/>
	<path id="XMLID_33_" class="st0" d="M23.7,7.4c0,0.9-0.8,1.7-1.7,1.7l0,0c-0.9,0-1.7-0.8-1.7-1.7V5.7C20.3,4.8,21.1,4,22,4l0,0
		c0.9,0,1.7,0.8,1.7,1.7V7.4z"/>
</g>
</svg>
