<?xml version="1.0" encoding="utf-8"?>
<!-- Generator: Adobe Illustrator 19.0.0, SVG Export Plug-In . SVG Version: 6.00 Build 0)  -->
<svg version="1.1" id="Layer_1" xmlns="http://www.w3.org/2000/svg" xmlns:xlink="http://www.w3.org/1999/xlink" x="0px" y="0px"
	 viewBox="0 0 32 32" style="enable-background:new 0 0 32 32;" xml:space="preserve">
<style type="text/css">
	.st0{fill:#F26248;}
</style>
<g id="XMLID_33_">
	<path id="XMLID_48_" class="st0" d="M25,6c0.6,0,0.9,0.1,1,0.1v13.7c-0.1,0.1-0.4,0.2-1,0.2l-2.5,0c-1.4,0-2.5,1.2-2.5,2.6v1.5
		l-3.9-3.1c-0.9-0.9-2.4-1-3-1.1c0,0,0,0-0.1,0H7c-0.6,0-0.9-0.1-1-0.2V6.1C6.1,6.1,6.4,6,7,6H25 M25,4H7C4.8,4,4,5,4,6s0,13,0,14
		s0.8,2,3,2h6c0,0,1.3,0,1.7,0.6l6.8,5.3c0.1,0.1,0.2,0.1,0.2,0.1c0.2,0,0.2-0.1,0.2-0.3v-5c0-0.4,0.2-0.6,0.5-0.6l2.5,0
		c2.2,0,3-1.1,3-2s0-13,0-14S27.3,4,25,4L25,4z"/>
</g>
</svg>
