<?xml version="1.0" encoding="utf-8"?>
<!-- Generator: Adobe Illustrator 16.0.0, SVG Export Plug-In . SVG Version: 6.00 Build 0)  -->
<!DOCTYPE svg PUBLIC "-//W3C//DTD SVG 1.1//EN" "http://www.w3.org/Graphics/SVG/1.1/DTD/svg11.dtd">
<svg version="1.1" id="Layer_1" xmlns="http://www.w3.org/2000/svg" xmlns:xlink="http://www.w3.org/1999/xlink" x="0px" y="0px"
	 width="500px" height="900px" viewBox="0 0 500 900" enable-background="new 0 0 500 900" xml:space="preserve">
<g>
	<path id="XMLID_39_" fill="#007AB9" d="M264.063,432.813L264.063,432.813L264.063,432.813L264.063,432.813z"/>
	<path fill="#007AB9" d="M250,215.625C120.313,215.625,15.625,320.313,15.625,450S120.313,684.375,250,684.375
		S484.375,579.688,484.375,450S379.688,215.625,250,215.625z M187.5,560.938h-50V412.5h50V560.938z M162.5,390.625L162.5,390.625
		c-17.188,0-28.125-10.938-28.125-25s10.938-25,28.125-25s28.125,10.938,28.125,25S179.688,390.625,162.5,390.625z M365.625,560.938
		h-50V481.25c0-20.313-7.813-34.375-25-34.375c-14.063,0-21.875,9.375-25,18.75c-1.563,3.125-1.563,7.813-1.563,12.5v82.813h-50
		c0,0,0-134.375,0-148.438h50v21.875c6.25-10.938,18.75-25,45.313-25c32.813,0,57.813,21.875,57.813,67.188v84.375H365.625z"/>
</g>
</svg>
