<?xml version="1.0" encoding="UTF-8" standalone="no"?>
<svg width="125px" height="127px" viewBox="0 0 125 127" version="1.1" xmlns="http://www.w3.org/2000/svg" xmlns:xlink="http://www.w3.org/1999/xlink" xmlns:sketch="http://www.bohemiancoding.com/sketch/ns">
    <!-- Generator: Sketch 3.3 (11970) - http://www.bohemiancoding.com/sketch -->
    <title>brokenlink</title>
    <desc>Created with Sketch.</desc>
    <defs></defs>
    <g id="Page-1" stroke="none" stroke-width="1" fill="none" fill-rule="evenodd" sketch:type="MSPage">
        <g id="error" sketch:type="MSArtboardGroup" transform="translate(-578.000000, -90.000000)">
            <g id="brokenlink" sketch:type="MSLayerGroup" transform="translate(577.500000, 90.000000)">
                <g id="Group" sketch:type="MSShapeGroup">
                    <path d="M62.2,44.2 C69.4,37 76.2,30 83.2,23.2 C85.6,20.8 88.6,18.6 91.6,17.6 C96.6,15.6 101.6,16.6 105.6,20.6 C109.4,24.6 110.4,29.4 108.4,34.2 C107,37.6 104.6,40.6 102.2,43.4 C95.6,50.4 88.8,57 82.2,63.6 C85.8,67.6 89.2,71.2 91.4,73.6 C100.4,65.4 109.8,57.8 117.6,49 C127.6,37.8 126.8,21.2 117,10.4 C107.4,-0.2 90.4,-2.4 78.6,7 C68.6,14.8 60,24.4 51.4,32.6 C55.4,36.8 58.6,40.4 62.2,44.2 L62.2,44.2 Z" id="Shape" fill="#FFFFFF"></path>
                    <path d="M34,53 C25,61.2 15.6,68.8 7.8,77.6 C-2.4,89 -1.4,106 8.6,116.6 C18.4,127 35.4,128.8 47.2,119.4 C57,111.6 65.4,102.2 74.2,93.8 C70.4,89.8 67,86.2 63.4,82.4 C56.2,89.6 49.4,96.6 42.4,103.4 C40,105.6 37.4,107.8 34.4,109 C29.2,111.2 24,110.4 20,106.2 C16,102.2 15.2,97.2 17.2,92.2 C18.6,89 20.8,86 23.2,83.4 C29.8,76.4 36.8,69.8 43.6,62.8 C39.8,58.8 36.4,55.4 34,53 L34,53 Z" id="Shape" fill="#FFFFFF"></path>
                    <path d="M62.2,44.2 C58.8,40.4 55.4,36.8 51.6,32.6 C60.2,24.4 68.8,14.8 78.8,7 C90.6,-2.4 107.6,-0.2 117.2,10.4 C127,21.2 127.8,37.8 117.8,49 C109.8,57.8 100.4,65.4 91.6,73.6 C89.4,71.2 86,67.6 82.4,63.6 C88.8,57.2 95.8,50.4 102.4,43.4 C105,40.8 107.4,37.6 108.6,34.2 C110.6,29.4 109.6,24.4 105.8,20.6 C101.8,16.6 96.8,15.6 91.8,17.6 C88.8,18.8 85.8,21 83.4,23.2 C76,30 69.2,37.2 62.2,44.2 L62.2,44.2 Z" id="Shape" fill="#FFFFFF"></path>
                    <path d="M34,53 L43.6,62.6 C36.8,69.4 29.8,76.2 23.2,83.2 C20.8,85.8 18.4,88.8 17.2,92 C15,97 16,102 20,106 C24.2,110.2 29.2,111 34.4,108.8 C37.4,107.6 40,105.6 42.4,103.2 C49.4,96.4 56.2,89.4 63.4,82.2 C67,86 70.4,89.6 74.2,93.6 C65.4,102 56.8,111.4 47.2,119.2 C35.6,128.6 18.6,126.8 8.6,116.4 C-1.4,105.8 -2.4,88.8 7.8,77.4 C15.8,68.8 25.2,61.2 34,53 L34,53 Z" id="Shape" fill="#FFFFFF"></path>
                    <path d="M93.2,90.4 C93.8,88.8 94.2,87.6 94.6,86 C104.6,87 114.4,88 124.2,89 C122.8,93.8 121.4,98.2 119.8,103.2 C111.8,99.4 102.8,95 93.2,90.4 L93.2,90.4 Z" id="Shape" fill="#F7D254"></path>
                    <path d="M89,95.2 C87.4,96 86.4,96.4 84.8,97.2 C87.2,107 89.4,116.6 91.8,126.2 C96.2,124.2 100.6,122.2 105.4,120 C100.2,112.4 94.8,104.2 89,95.2 L89,95.2 Z" id="Shape" fill="#F7D254"></path>
                    <path d="M33,35 C32.4,36.6 32.2,37.8 31.6,39.4 L2.8,36.4 C4.2,31.8 5.6,27.4 7.2,22.6 C15,26.4 23.6,30.4 33,35 L33,35 Z" id="Shape" fill="#F7D254"></path>
                    <path d="M37,30.2 C38.4,29.4 39.6,29 41.2,28.2 C39,18.8 36.8,9.4 34.4,-3.55271368e-15 C30,2 25.8,4 21.2,6.2 C26.2,13.6 31.4,21.6 37,30.2 L37,30.2 Z" id="Shape" fill="#F7D254"></path>
                </g>
            </g>
        </g>
    </g>
</svg>