<?xml version="1.0" encoding="utf-8"?>
<!-- Generator: Adobe Illustrator 19.0.0, SVG Export Plug-In . SVG Version: 6.00 Build 0)  -->
<svg version="1.1" id="Layer_1" xmlns="http://www.w3.org/2000/svg" xmlns:xlink="http://www.w3.org/1999/xlink" x="0px" y="0px"
	 viewBox="0 0 32 32" style="enable-background:new 0 0 32 32;" xml:space="preserve">
<style type="text/css">
	.st0{fill:#ABABAB;}
</style>
<g>
	<path id="XMLID_37_" class="st0" d="M16,5c6.1,0,11,4.9,11,11s-4.9,11-11,11C9.9,27,5,22.1,5,16S9.9,5,16,5 M16,3C8.8,3,3,8.8,3,16
		s5.8,13,13,13c7.2,0,13-5.8,13-13S23.2,3,16,3L16,3z"/>
	<g>
		<path id="XMLID_36_" class="st0" d="M15,19c0-0.7,0.1-1.2,0.3-1.7c0.2-0.4,0.4-0.8,0.8-1.3c0.3-0.3,0.7-0.8,1.4-1.3
			c0.7-0.6,1.1-1.1,1.3-1.4c0.2-0.4,0.3-0.7,0.3-1.2c0-0.8-0.3-1.4-0.9-2c-0.6-0.6-1.3-0.9-2.2-0.9c-0.8,0-1.5,0.3-2.1,0.8
			c-0.6,0.5-0.9,1.3-1.1,2.4l-2-0.2c0.2-1.5,0.7-2.6,1.6-3.4C13.4,8,14.6,7.6,16,7.6c1.5,0,2.8,0.4,3.7,1.3c0.9,0.8,1.4,1.9,1.4,3
			c0,0.7-0.2,1.3-0.5,1.9c-0.3,0.6-1,1.3-1.9,2.1c-0.6,0.6-1,1-1.2,1.2c-0.2,0.3-0.3,0.6-0.4,0.9c-0.1,0.2-0.1,0.5-0.1,0.9L15,19z"
			/>
		<circle id="XMLID_33_" class="st0" cx="16" cy="22.8" r="1.5"/>
	</g>
</g>
</svg>
