<?xml version="1.0" encoding="utf-8"?>
<!-- Generator: Adobe Illustrator 19.0.0, SVG Export Plug-In . SVG Version: 6.00 Build 0)  -->
<svg version="1.1" id="Layer_1" xmlns="http://www.w3.org/2000/svg" xmlns:xlink="http://www.w3.org/1999/xlink" x="0px" y="0px"
	 viewBox="0 0 32 32" style="enable-background:new 0 0 32 32;" xml:space="preserve">
<style type="text/css">
	.st0{fill:#ABABAB;}
	.st1{fill:#ABABAB;stroke:#ABABAB;stroke-miterlimit:10;}
</style>
<g>
	<path id="XMLID_39_" class="st0" d="M17.5,18.4v-0.6c0-0.8-0.6-1.4-1.4-1.4c-0.8,0-1.4,0.6-1.4,1.4v0.6c0,0.8,0.6,1.4,1.4,1.4
		C16.9,19.8,17.5,19.2,17.5,18.4z"/>
	<path id="XMLID_38_" class="st0" d="M12.5,21.2c0.8,1.1,2.1,1.8,3.6,1.8c1.4,0,2.8-0.7,3.6-1.8H28v4.1c0,0.2-0.1,0.3-0.3,0.3H4.5
		c-0.2,0-0.3-0.1-0.3-0.3v-4.1H12.5 M2.2,18.8v6.5c0,1.3,1,2.3,2.3,2.3h23.2c1.3,0,2.3-1,2.3-2.3v-6.5c-0.5,0.2-1.1,0.4-1.7,0.4
		h-9.8v0c-0.3,1-1.3,1.8-2.4,1.8c-1.1,0-2.1-0.8-2.4-1.8H3.9C3.3,19.2,2.7,19,2.2,18.8L2.2,18.8z"/>
	<path class="st1" d="M21.4,8.5c-0.3-2.1-2.3-3.5-4.5-3.5l-2.1,0c-2.2,0-3.8,1.5-4.2,3.5 M11.8,8.5c0.3-0.9,1.1-2.5,2.1-2.5h4.4
		c1,0,1.8,1.6,2.1,2.5H11.8z"/>
	<path class="st0" d="M28.1,9.5c0.2,0,0.3,0.1,0.3,0.1c0,0,0.1,0.1,0.1,0.2v5.3c0,0.2-0.1,0.3-0.3,0.3H20c-0.2-0.4-0.5-0.8-0.8-1.1
		c0,0-0.1-0.1-0.2-0.1c-0.2-0.2-0.3-0.3-0.5-0.4c-0.1-0.1-0.2-0.1-0.3-0.2l0,0c-0.1-0.1-0.3-0.2-0.5-0.2c-0.1-0.1-0.3-0.1-0.5-0.2
		c-0.1,0-0.3-0.1-0.4-0.1C16.6,13.1,16.3,13,16,13c-0.3,0-0.6,0-0.9,0.1c-0.1,0-0.3,0.1-0.4,0.1c-0.1,0-0.3,0.1-0.4,0.1
		c-0.2,0.1-0.4,0.2-0.5,0.2c-0.1,0-0.2,0.1-0.3,0.2c-0.2,0.1-0.4,0.3-0.5,0.4l-0.1,0l-0.1,0.1c-0.3,0.3-0.6,0.7-0.9,1.1H3.8
		c-0.2,0-0.3-0.1-0.3-0.3V9.8c0-0.1,0.2-0.3,0.4-0.3H28.1 M28.1,7.5H3.9c-1.3,0-2.4,1-2.4,2.3v5.3c0,1.3,1,2.3,2.3,2.3h9.7
		c0-0.7,0.3-1.3,0.8-1.7c0,0,0,0,0,0c0.1-0.1,0.2-0.2,0.3-0.3c0,0,0.1,0,0.1-0.1c0.1-0.1,0.2-0.1,0.3-0.2c0.1,0,0.2-0.1,0.2-0.1
		c0.1,0,0.1,0,0.2-0.1c0.2,0,0.3-0.1,0.5-0.1c0.2,0,0.3,0,0.5,0.1c0.1,0,0.1,0,0.2,0.1c0.1,0,0.2,0,0.2,0.1c0.1,0,0.2,0.1,0.3,0.2
		c0,0,0.1,0,0.1,0.1c0.1,0.1,0.2,0.2,0.3,0.3c0,0,0,0,0,0c0.5,0.4,0.7,1,0.8,1.7h9.7c1.3,0,2.3-1,2.3-2.3V9.8
		C30.5,8.5,29.4,7.5,28.1,7.5L28.1,7.5z"/>
</g>
</svg>
