<?xml version="1.0" encoding="utf-8"?>
<!-- Generator: Adobe Illustrator 19.0.0, SVG Export Plug-In . SVG Version: 6.00 Build 0)  -->
<svg version="1.1" id="Layer_1" xmlns="http://www.w3.org/2000/svg" xmlns:xlink="http://www.w3.org/1999/xlink" x="0px" y="0px"
	 viewBox="0 0 32 32" style="enable-background:new 0 0 32 32;" xml:space="preserve">
<style type="text/css">
	.st0{fill-rule:evenodd;clip-rule:evenodd;fill:#ABABAB;}
</style>
<g>
	<path class="st0" d="M28.2,26H3.8c-1,0-1.8-0.8-1.8-1.9c0-1,0.8-1.9,1.8-1.9c1,0,1.8-0.8,1.8-1.9v-9.8c0-4.8,3.8-8.7,8.5-8.7
		C14.2,0.8,15,0,16,0c1,0,1.8,0.8,1.8,1.9c4.7,0,8.5,3.9,8.5,8.7v9.8c0,1,0.8,1.9,1.8,1.9c1,0,1.8,0.8,1.8,1.9
		C30,25.2,29.2,26,28.2,26"/>
	<path id="XMLID_33_" class="st0" d="M20,28c0,2.2-1.8,4-4,4s-4-1.8-4-4H20z"/>
</g>
</svg>
