<?xml version="1.0" encoding="utf-8"?>
<!-- Generator: Adobe Illustrator 16.0.0, SVG Export Plug-In . SVG Version: 6.00 Build 0)  -->
<!DOCTYPE svg PUBLIC "-//W3C//DTD SVG 1.1//EN" "http://www.w3.org/Graphics/SVG/1.1/DTD/svg11.dtd">
<svg version="1.1" id="Layer_1" xmlns="http://www.w3.org/2000/svg" xmlns:xlink="http://www.w3.org/1999/xlink" x="0px" y="0px"
	 width="20px" height="13.75px" viewBox="0 3.125 20 13.75" enable-background="new 0 3.125 20 13.75" xml:space="preserve">
<path fill="#14C4E4" d="M19.875,9.875c0.063,0,0.063,0.063,0.125,0.063C19.938,10,19.875,10,19.75,10
	c-1.375,0.5-2.813,1.063-4.188,1.563c-0.188,0.063-0.25,0.125-0.188,0.313c0,0.563,0,1.125,0,1.688c0,0.125,0,0.188,0,0.313
	c-2-0.625-3.875-0.563-5.375,1.063c-1.5-1.688-3.375-1.688-5.375-1.063c0-0.313,0-0.625,0-0.875c0-0.375,0-0.75,0-1.125
	c0-0.063-0.063-0.188-0.125-0.188c-0.688-0.25-1.375-0.5-2.063-0.75c0,0,0,0-0.063,0c0,0.313,0,0.625,0,0.938
	C2.375,11.938,2.438,12,2.5,12c0.5,0.438,0.563,1.063,0.063,1.5c-0.063,0.063-0.125,0.188-0.125,0.25
	c0.125,1,0.25,1.938,0.438,2.938c0,0.063,0,0.125,0,0.188c-0.625,0-1.25,0-1.938,0c0.063-0.563,0.125-1.063,0.25-1.563
	c0.063-0.563,0.188-1.063,0.25-1.625c0-0.063-0.063-0.188-0.063-0.188c-0.5-0.5-0.5-1.063,0.063-1.5
	C1.5,11.938,1.5,11.875,1.563,11.75c0-0.375,0-0.688,0-1.063c0-0.125-0.063-0.188-0.188-0.25c-0.438-0.125-0.875-0.313-1.313-0.5
	c0.063-0.063,0.125-0.063,0.125-0.125c-0.125,0.125,9.875-6.688,9.875-6.688 M4.625,11.125c1.75-0.563,3.5-1,5.375-1
	c1.813,0,3.625,0.438,5.375,1c0-0.125,0-0.25,0-0.375c0-0.438,0-0.438-0.375-0.563c-1.25-0.375-2.563-0.688-3.875-0.813
	c-1.438-0.125-2.813,0-4.25,0.313c-0.75,0.188-1.5,0.375-2.25,0.563C4.625,10.625,4.625,10.813,4.625,11.125z"/>
</svg>
