<?xml version="1.0" encoding="utf-8"?>
<!-- Generator: Adobe Illustrator 19.0.0, SVG Export Plug-In . SVG Version: 6.00 Build 0)  -->
<svg version="1.1" id="Layer_1" xmlns="http://www.w3.org/2000/svg" xmlns:xlink="http://www.w3.org/1999/xlink" x="0px" y="0px"
	 viewBox="0 0 100 100" style="enable-background:new 0 0 100 100;" xml:space="preserve">
<style type="text/css">
	.st0{fill:#FFFFFF;}
</style>
<g>
	<g>
		<path id="XMLID_20_" class="st0" d="M49.9,94.1c-5,0-10.1,0-13.9,0c-7.3,0-7.3,0-7.3-1.1c0-4,1.3-7.7,3.9-11
			c-8.8-5.8-14.2-16-14.2-26.8c0-3,0.4-6,1.3-9c-4.6,0-9.1,0-12.5,0c-7.3,0-7.3,0-7.3-1.1c0-7.2,4.5-13.7,11.6-17
			c-1.9-2.3-2.9-5.2-2.9-8.3c0-7.1,5.6-13,12.5-13c6.9,0,12.5,5.8,12.5,13c0,3.1-1,6-2.9,8.3c0.4,0.2,0.9,0.4,1.3,0.7
			c5.1-3.6,11.1-5.5,17.2-5.5c6.4,0,12.6,2.1,17.8,5.9c0.7-0.4,1.4-0.8,2.1-1.1c-1.9-2.3-2.9-5.2-2.9-8.3c0-7.1,5.6-13,12.5-13
			s12.5,5.8,12.5,13c0,3.1-1,6-2.9,8.3c7.1,3.2,11.6,9.8,11.6,17c0,1,0,1-7.8,1.1c-3.7,0-8.6,0-13.4,0c0.8,3,1.3,6,1.3,9
			c0,10.5-4.9,20.2-13.3,26.2c2.8,3.3,4.4,7.4,4.4,11.6c0,1,0,1-7.3,1.1C60,94.1,54.9,94.1,49.9,94.1z M30.7,92
			c5.4,0.1,32.9,0.1,38.3,0c-0.2-3.7-1.8-7.3-4.6-10.1l-0.8-0.9l1-0.7C73,74.9,78,65.4,78,55.2c0-3.3-0.5-6.5-1.6-9.7l-0.4-1.3
			l1.4,0c9.8,0,17.9,0,20.5-0.1C97.5,37.7,93,32,86.3,29.4l-1.5-0.6l1.1-1.1c2.1-2.1,3.3-4.9,3.3-8c0-6-4.7-11-10.5-11
			c-5.8,0-10.5,4.9-10.5,11c0,3,1.2,5.9,3.3,8l1.1,1.1l-1.5,0.6c-1.3,0.5-2.5,1.1-3.7,1.9l-0.6,0.4l-0.6-0.4c-5-3.9-11-5.9-17.2-5.9
			c-6,0-11.7,1.9-16.6,5.5l-0.5,0.4l-0.6-0.3c-1-0.6-1.9-1-2.9-1.4l-1.5-0.6l1.1-1.1c2.1-2.1,3.3-4.9,3.3-8c0-6-4.7-11-10.5-11
			s-10.5,4.9-10.5,11c0,3,1.2,5.9,3.3,8l1.1,1.1l-1.5,0.6C6.8,32,2.3,37.7,1.9,44.1c2.5,0,9.9,0.1,19.1,0.1h1.4L22,45.5
			c-1,3.2-1.6,6.4-1.6,9.7c0,10.5,5.4,20.4,14.2,25.8l1,0.6l-0.8,0.9C32.3,85.2,31,88.5,30.7,92z"/>
	</g>
	<g>
		<g>
			<path id="XMLID_17_" class="st0" d="M21.1,32.8c-6.9,0-12.5-5.8-12.5-13s5.6-13,12.5-13c6.9,0,12.5,5.8,12.5,13
				S28,32.8,21.1,32.8z M21.1,8.8c-5.8,0-10.5,4.9-10.5,11s4.7,11,10.5,11s10.5-4.9,10.5-11S26.9,8.8,21.1,8.8z"/>
		</g>
		<g>
			<path id="XMLID_14_" class="st0" d="M21.1,46.2c-5,0-10.1,0-13.9,0c-7.3,0-7.3,0-7.3-1.1c0-7.2,4.5-13.7,11.6-17
				c-1.9-2.3-2.9-5.2-2.9-8.3c0-7.1,5.6-13,12.5-13c6.9,0,12.5,5.8,12.5,13c0,3.1-1,6-2.9,8.3c7.1,3.2,11.6,9.8,11.6,17
				c0,1,0,1-7.3,1.1C31.2,46.2,26.1,46.2,21.1,46.2z M1.9,44.1c5.4,0.1,32.9,0.1,38.3,0c-0.4-6.4-4.9-12.1-11.6-14.7l-1.5-0.6
				l1.1-1.1c2.1-2.1,3.3-4.9,3.3-8c0-6-4.7-11-10.5-11s-10.5,4.9-10.5,11c0,3,1.2,5.9,3.3,8l1.1,1.1l-1.5,0.6
				C6.8,32,2.3,37.7,1.9,44.1z"/>
		</g>
	</g>
	<g>
		<g>
			<path id="XMLID_11_" class="st0" d="M78.7,32.8c-6.9,0-12.5-5.8-12.5-13s5.6-13,12.5-13s12.5,5.8,12.5,13S85.6,32.8,78.7,32.8z
				 M78.7,8.8c-5.8,0-10.5,4.9-10.5,11s4.7,11,10.5,11c5.8,0,10.5-4.9,10.5-11S84.5,8.8,78.7,8.8z"/>
		</g>
		<g>
			<path id="XMLID_8_" class="st0" d="M78.7,46.2c-5,0-10.1,0-13.9,0c-7.3,0-7.3,0-7.3-1.1c0-7.2,4.5-13.7,11.6-17
				c-1.9-2.3-2.9-5.2-2.9-8.3c0-7.1,5.6-13,12.5-13s12.5,5.8,12.5,13c0,3.1-1,6-2.9,8.3c7.1,3.2,11.6,9.8,11.6,17c0,1,0,1-7.3,1.1
				C88.8,46.2,83.8,46.2,78.7,46.2z M59.6,44.1c5.4,0.1,32.9,0.1,38.3,0C97.5,37.7,93,32,86.3,29.4l-1.5-0.6l1.1-1.1
				c2.1-2.1,3.3-4.9,3.3-8c0-6-4.7-11-10.5-11c-5.8,0-10.5,4.9-10.5,11c0,3,1.2,5.9,3.3,8l1.1,1.1l-1.5,0.6
				C64.4,32,60,37.7,59.6,44.1z"/>
		</g>
	</g>
	<g>
		<g>
			<path id="XMLID_5_" class="st0" d="M49.9,80.7c-6.9,0-12.5-5.8-12.5-13c0-7.1,5.6-13,12.5-13s12.5,5.8,12.5,13
				C62.4,74.8,56.8,80.7,49.9,80.7z M49.9,56.7c-5.8,0-10.5,4.9-10.5,11s4.7,11,10.5,11s10.5-4.9,10.5-11S55.7,56.7,49.9,56.7z"/>
		</g>
		<g>
			<path id="XMLID_2_" class="st0" d="M49.9,94.1c-5,0-10.1,0-13.9,0c-7.3,0-7.3,0-7.3-1.1c0-7.2,4.5-13.7,11.6-17
				c-1.9-2.3-2.9-5.2-2.9-8.3c0-7.1,5.6-13,12.5-13s12.5,5.8,12.5,13c0,3.1-1,6-2.9,8.3c7.1,3.2,11.6,9.8,11.6,17c0,1,0,1-7.3,1.1
				C60,94.1,54.9,94.1,49.9,94.1z M30.7,92c5.4,0.1,32.9,0.1,38.3,0c-0.4-6.4-4.9-12.1-11.6-14.7L56,76.8l1.1-1.1
				c2.1-2.1,3.3-4.9,3.3-8c0-6-4.7-11-10.5-11s-10.5,4.9-10.5,11c0,3,1.2,5.9,3.3,8l1.1,1.1l-1.5,0.6C35.6,79.9,31.1,85.6,30.7,92z"
				/>
		</g>
	</g>
</g>
</svg>
