<?xml version="1.0" encoding="utf-8"?>
<!-- Generator: Adobe Illustrator 16.0.0, SVG Export Plug-In . SVG Version: 6.00 Build 0)  -->
<!DOCTYPE svg PUBLIC "-//W3C//DTD SVG 1.1//EN" "http://www.w3.org/Graphics/SVG/1.1/DTD/svg11.dtd">
<svg version="1.1" id="Layer_1" xmlns="http://www.w3.org/2000/svg" xmlns:xlink="http://www.w3.org/1999/xlink" x="0px" y="0px"
	 width="18.125px" height="17px" viewBox="0.938 1.5 18.125 17" enable-background="new 0.938 1.5 18.125 17" xml:space="preserve">
<g>
	<path id="XMLID_37_" fill="#95BA62" d="M9.438,4.125V14.75c0,0-2.5-1.813-5.688-1.313V1.5L9.438,4.125z"/>
	<path id="XMLID_36_" fill="#95BA62" d="M10.563,4.125V14.75c0,0,2.5-1.813,5.688-1.313V1.5L10.563,4.125z"/>
	<path id="XMLID_33_" fill="#95BA62" d="M17.375,4.688l0.063,10.125c0,0-4.438-0.813-7.375,2.125c-3-2.938-7.375-2.125-7.375-2.125
		V4.688l-1.75-1.063v12.75C7.563,15.563,10,18.5,10,18.5s2.438-2.938,9.063-2.125V3.625L17.375,4.688z"/>
</g>
</svg>
