<?xml version="1.0" encoding="utf-8"?>
<!-- Generator: Adobe Illustrator 19.0.0, SVG Export Plug-In . SVG Version: 6.00 Build 0)  -->
<svg version="1.1" id="Layer_1" xmlns="http://www.w3.org/2000/svg" xmlns:xlink="http://www.w3.org/1999/xlink" x="0px" y="0px"
	 viewBox="0 0 100 100" style="enable-background:new 0 0 100 100;" xml:space="preserve">
<style type="text/css">
	.st0{fill:#FFFFFF;}
</style>
<g>
	<g>
		<rect id="XMLID_23_" x="0.6" y="32.8" class="st0" width="81.8" height="2"/>
	</g>
	<g>
		<path id="XMLID_22_" class="st0" d="M52.3,83H5.7c-3.1,0-5.5-2.5-5.5-5.5V23.6c0-3.1,2.5-5.5,5.5-5.5h16v-5.8
			c0-3.1,2.5-5.5,5.5-5.5s5.5,2.5,5.5,5.5v5.8h17.3v-5.8c0-3.1,2.5-5.5,5.5-5.5c3.1,0,5.5,2.5,5.5,5.5v5.8h16c3.1,0,5.5,2.5,5.5,5.5
			v18.2h-2V23.6c0-2-1.6-3.5-3.5-3.5h-18v-7.8c0-2-1.6-3.5-3.5-3.5s-3.5,1.6-3.5,3.5v7.8H30.8v-7.8c0-2-1.6-3.5-3.5-3.5
			s-3.5,1.6-3.5,3.5v7.8h-18c-2,0-3.5,1.6-3.5,3.5v53.9c0,2,1.6,3.5,3.5,3.5h46.6V83z"/>
	</g>
	<g>
		<g>
			<path id="XMLID_19_" class="st0" d="M28.8,26.9h-3.1c-2.2,0-4-1.8-4-4V10.7c0-2.2,1.8-4,4-4h3.1c2.2,0,4,1.8,4,4v12.2
				C32.8,25.1,31,26.9,28.8,26.9z M25.7,8.7c-1.1,0-2,0.9-2,2v12.2c0,1.1,0.9,2,2,2h3.1c1.1,0,2-0.9,2-2V10.7c0-1.1-0.9-2-2-2H25.7z
				"/>
		</g>
		<g>
			<path id="XMLID_16_" class="st0" d="M57.2,26.9h-3.1c-2.2,0-4-1.8-4-4V10.7c0-2.2,1.8-4,4-4h3.1c2.2,0,4,1.8,4,4v12.2
				C61.2,25.1,59.4,26.9,57.2,26.9z M54.1,8.7c-1.1,0-2,0.9-2,2v12.2c0,1.1,0.9,2,2,2h3.1c1.1,0,2-0.9,2-2V10.7c0-1.1-0.9-2-2-2
				H54.1z"/>
		</g>
	</g>
	<g>
		<g>
			<rect id="XMLID_15_" x="10.3" y="47.6" class="st0" width="4.5" height="2"/>
		</g>
		<g>
			<rect id="XMLID_14_" x="10.3" y="58.9" class="st0" width="4.5" height="2"/>
		</g>
		<g>
			<rect id="XMLID_13_" x="10.3" y="70.3" class="st0" width="4.5" height="2"/>
		</g>
	</g>
	<g>
		<g>
			<rect id="XMLID_12_" x="25" y="47.6" class="st0" width="4.5" height="2"/>
		</g>
		<g>
			<rect id="XMLID_11_" x="25" y="58.9" class="st0" width="4.5" height="2"/>
		</g>
		<g>
			<rect id="XMLID_10_" x="25" y="70.3" class="st0" width="4.5" height="2"/>
		</g>
	</g>
	<g>
		<g>
			<rect id="XMLID_9_" x="39.8" y="47.6" class="st0" width="4.5" height="2"/>
		</g>
		<g>
			<rect id="XMLID_8_" x="39.8" y="58.9" class="st0" width="4.5" height="2"/>
		</g>
		<g>
			<rect id="XMLID_7_" x="39.8" y="70.3" class="st0" width="4.5" height="2"/>
		</g>
	</g>
	<g>
		<path id="XMLID_4_" class="st0" d="M73.8,92.7c-14.3,0-26-11.7-26-26s11.7-26,26-26s26,11.7,26,26S88.2,92.7,73.8,92.7z
			 M73.8,42.8c-13.2,0-24,10.8-24,24s10.8,24,24,24s24-10.8,24-24S87.1,42.8,73.8,42.8z"/>
	</g>
	<g>
		<rect id="XMLID_3_" x="72.8" y="54.3" class="st0" width="2" height="16.4"/>
	</g>
	<g>
		<rect id="XMLID_2_" x="73.8" y="68.7" class="st0" width="14.8" height="2"/>
	</g>
</g>
</svg>
