<?xml version="1.0" encoding="utf-8"?>
<!-- Generator: Adobe Illustrator 19.0.0, SVG Export Plug-In . SVG Version: 6.00 Build 0)  -->
<svg version="1.1" id="Layer_1" xmlns="http://www.w3.org/2000/svg" xmlns:xlink="http://www.w3.org/1999/xlink" x="0px" y="0px"
	 viewBox="0 0 32 32" style="enable-background:new 0 0 32 32;" xml:space="preserve">
<style type="text/css">
	.st0{fill:#14C4E4;}
</style>
<path class="st0" d="M31.8,15.8c0.1,0,0.1,0.1,0.2,0.1C31.9,16,31.8,16,31.6,16c-2.2,0.8-4.5,1.7-6.7,2.5c-0.3,0.1-0.4,0.2-0.3,0.5
	c0,0.9,0,1.8,0,2.7c0,0.2,0,0.3,0,0.5c-3.2-1-6.2-0.9-8.6,1.7c-2.4-2.7-5.4-2.7-8.6-1.7c0-0.5,0-1,0-1.4c0-0.6,0-1.2,0-1.8
	c0-0.1-0.1-0.3-0.2-0.3c-1.1-0.4-2.2-0.8-3.3-1.2c0,0,0,0-0.1,0c0,0.5,0,1,0,1.5c0,0.1,0.1,0.2,0.2,0.2c0.8,0.7,0.9,1.7,0.1,2.4
	C4,21.7,3.9,21.9,3.9,22c0.2,1.6,0.4,3.1,0.7,4.7c0,0.1,0,0.2,0,0.3c-1,0-2,0-3.1,0c0.1-0.9,0.2-1.7,0.4-2.5
	c0.1-0.9,0.3-1.7,0.4-2.6c0-0.1-0.1-0.3-0.1-0.3c-0.8-0.8-0.8-1.7,0.1-2.4c0.1-0.1,0.1-0.2,0.2-0.4c0-0.6,0-1.1,0-1.7
	c0-0.2-0.1-0.3-0.3-0.4c-0.7-0.2-1.4-0.5-2.1-0.8c0.1-0.1,0.2-0.1,0.2-0.2C0.1,15.9,16.1,5,16.1,5 M7.4,17.8
	c2.8-0.9,5.6-1.6,8.6-1.6c2.9,0,5.8,0.7,8.6,1.6c0-0.2,0-0.4,0-0.6c0-0.7,0-0.7-0.6-0.9c-2-0.6-4.1-1.1-6.2-1.3
	c-2.3-0.2-4.5,0-6.8,0.5c-1.2,0.3-2.4,0.6-3.6,0.9C7.4,17,7.4,17.3,7.4,17.8z"/>
</svg>
