<?xml version="1.0" encoding="utf-8"?>
<!-- Generator: Adobe Illustrator 19.0.0, SVG Export Plug-In . SVG Version: 6.00 Build 0)  -->
<svg version="1.1" id="Layer_1" xmlns="http://www.w3.org/2000/svg" xmlns:xlink="http://www.w3.org/1999/xlink" x="0px" y="0px"
	 viewBox="0 0 100 100" style="enable-background:new 0 0 100 100;" xml:space="preserve">
<style type="text/css">
	.st0{fill:#FFFFFF;}
</style>
<g>
	<g id="XMLID_9_">
		<path id="XMLID_29_" class="st0" d="M46.1,93.8H15.4C9.6,93.8,5,89.5,5,84.3V15.7c0-5.2,4.7-9.5,10.4-9.5h30.7
			c5.8,0,10.4,4.3,10.4,9.5v14.9h-2V15.7c0-4.1-3.8-7.5-8.4-7.5H15.4c-4.7,0-8.4,3.4-8.4,7.5v68.6c0,4.1,3.8,7.5,8.4,7.5h30.7
			c4.7,0,8.4-3.4,8.4-7.5V65.9h2v18.4C56.5,89.5,51.8,93.8,46.1,93.8z"/>
	</g>
	<g id="XMLID_8_">
		<rect id="XMLID_28_" x="7" y="16.2" class="st0" width="47.2" height="2"/>
	</g>
	<g id="XMLID_7_">
		<rect id="XMLID_27_" x="24.6" y="11.9" class="st0" width="11.8" height="2"/>
	</g>
	<g id="XMLID_6_">
		<rect id="XMLID_26_" x="7" y="80.4" class="st0" width="47.2" height="2"/>
	</g>
	<g id="XMLID_5_">
		<path id="XMLID_23_" class="st0" d="M30.5,90.1c-1.9,0-3.5-1.6-3.5-3.5s1.6-3.5,3.5-3.5s3.5,1.6,3.5,3.5S32.5,90.1,30.5,90.1z
			 M30.5,85.2c-0.8,0-1.5,0.7-1.5,1.5s0.7,1.5,1.5,1.5s1.5-0.7,1.5-1.5S31.4,85.2,30.5,85.2z"/>
	</g>
	<g id="XMLID_4_">
		<path id="XMLID_20_" class="st0" d="M56.7,52.1c-1.7,0-3.2-1.4-3.2-3.1s1.4-3.1,3.2-3.1s3.2,1.4,3.2,3.1S58.4,52.1,56.7,52.1z
			 M56.7,47.8c-0.6,0-1.2,0.5-1.2,1.1s0.5,1.1,1.2,1.1s1.2-0.5,1.2-1.1S57.3,47.8,56.7,47.8z"/>
	</g>
	<g id="XMLID_3_">
		<path id="XMLID_17_" class="st0" d="M66.7,52.1c-1.7,0-3.2-1.4-3.2-3.1s1.4-3.1,3.2-3.1s3.2,1.4,3.2,3.1S68.5,52.1,66.7,52.1z
			 M66.7,47.8c-0.6,0-1.2,0.5-1.2,1.1s0.5,1.1,1.2,1.1s1.2-0.5,1.2-1.1S67.4,47.8,66.7,47.8z"/>
	</g>
	<g id="XMLID_2_">
		<path id="XMLID_14_" class="st0" d="M76.1,52.1c-1.7,0-3.2-1.4-3.2-3.1s1.4-3.1,3.2-3.1s3.2,1.4,3.2,3.1S77.8,52.1,76.1,52.1z
			 M76.1,47.8c-0.6,0-1.2,0.5-1.2,1.1s0.5,1.1,1.2,1.1s1.2-0.5,1.2-1.1S76.7,47.8,76.1,47.8z"/>
	</g>
	<g id="XMLID_1_">
		<path id="XMLID_11_" class="st0" d="M37,71.6l5.6-13.1c-2.3-3-3.4-6.4-3.4-9.8c0-11.2,12.5-20.4,27.9-20.4S95,37.4,95,48.6
			C95,59.8,82.5,69,67.1,69c-4.3,0-8.3-0.7-12.1-2L37,71.6z M67.1,30.2c-14.3,0-25.9,8.2-25.9,18.4c0,3.2,1.2,6.3,3.4,9l0.4,0.5
			l-4.5,10.5l14.6-3.7l0.3,0.1c3.7,1.3,7.6,2,11.7,2C81.4,67,93,58.7,93,48.6C93,38.5,81.4,30.2,67.1,30.2z"/>
	</g>
</g>
</svg>
