<?xml version="1.0" encoding="UTF-8" standalone="no"?>
<svg width="113px" height="91px" viewBox="0 0 113 91" version="1.1" xmlns="http://www.w3.org/2000/svg" xmlns:xlink="http://www.w3.org/1999/xlink" xmlns:sketch="http://www.bohemiancoding.com/sketch/ns">
    <!-- Generator: Sketch 3.3 (11970) - http://www.bohemiancoding.com/sketch -->
    <title>home_service4</title>
    <desc>Created with Sketch.</desc>
    <defs></defs>
    <g id="Page-1" stroke="none" stroke-width="1" fill="none" fill-rule="evenodd" sketch:type="MSPage">
        <g id="How-It-Works" sketch:type="MSArtboardGroup" transform="translate(-1013.000000, -584.000000)" fill="#95BA62">
            <g id="Why-use-Copy" sketch:type="MSLayerGroup" transform="translate(0.000000, 512.000000)">
                <g id="job-copy" transform="translate(944.000000, 72.003922)" sketch:type="MSShapeGroup">
                    <g id="home_service4" transform="translate(69.301456, 0.108511)">
                        <g id="Group">
                            <rect id="XMLID_23_" x="0.676937943" y="27.9836412" width="92.2892062" height="2.08833143"></rect>
                            <path d="M59.006424,80.4007601 L6.43091046,80.4007601 C2.93339775,80.4007601 0.225645981,77.7903458 0.225645981,74.6578487 L0.225645981,18.3773166 C0.225645981,15.1404029 3.04622074,12.6344052 6.43091046,12.6344052 L24.4825889,12.6344052 L24.4825889,6.57824401 C24.4825889,3.34133029 27.3031637,0.835332573 30.6878534,0.835332573 C34.0725431,0.835332573 36.8931179,3.44574686 36.8931179,6.57824401 L36.8931179,12.6344052 L56.4114953,12.6344052 L56.4114953,6.57824401 C56.4114953,3.34133029 59.23207,0.835332573 62.6167597,0.835332573 C66.1142724,0.835332573 68.8220242,3.44574686 68.8220242,6.57824401 L68.8220242,12.6344052 L86.8737027,12.6344052 C90.3712154,12.6344052 93.0789672,15.2448195 93.0789672,18.3773166 L93.0789672,37.3811326 L90.8225074,37.3811326 L90.8225074,18.3773166 C90.8225074,16.2889852 89.0173395,14.7227366 86.8737027,14.7227366 L66.5655644,14.7227366 L66.5655644,6.57824401 C66.5655644,4.48991258 64.7603966,2.923664 62.6167597,2.923664 C60.4731229,2.923664 58.6679551,4.59432915 58.6679551,6.57824401 L58.6679551,14.7227366 L34.7494811,14.7227366 L34.7494811,6.57824401 C34.7494811,4.48991258 32.9443132,2.923664 30.8006764,2.923664 C28.6570396,2.923664 26.8518717,4.59432915 26.8518717,6.57824401 L26.8518717,14.7227366 L6.54373345,14.7227366 C4.28727364,14.7227366 2.59492878,16.3934017 2.59492878,18.3773166 L2.59492878,74.6578487 C2.59492878,76.7461801 4.40009663,78.3124287 6.54373345,78.3124287 L59.119247,78.3124287 L59.119247,80.4007601 L59.006424,80.4007601 Z" id="XMLID_22_"></path>
                            <g transform="translate(23.692828, 0.000000)">
                                <path d="M8.80019326,21.8230635 L5.30268055,21.8230635 C2.82057476,21.8230635 0.789760934,19.9435652 0.789760934,17.6464006 L0.789760934,4.90757887 C0.789760934,2.61041429 2.82057476,0.730916001 5.30268055,0.730916001 L8.80019326,0.730916001 C11.2822991,0.730916001 13.3131129,2.61041429 13.3131129,4.90757887 L13.3131129,17.6464006 C13.3131129,19.9435652 11.2822991,21.8230635 8.80019326,21.8230635 L8.80019326,21.8230635 Z M5.30268055,2.81924743 C4.06162766,2.81924743 3.04622074,3.75899658 3.04622074,4.90757887 L3.04622074,17.6464006 C3.04622074,18.7949829 4.06162766,19.734732 5.30268055,19.734732 L8.80019326,19.734732 C10.0412462,19.734732 11.0566531,18.7949829 11.0566531,17.6464006 L11.0566531,4.90757887 C11.0566531,3.75899658 10.0412462,2.81924743 8.80019326,2.81924743 L5.30268055,2.81924743 L5.30268055,2.81924743 Z" id="XMLID_19_"></path>
                                <path d="M40.8419226,21.8230635 L37.3444099,21.8230635 C34.8623041,21.8230635 32.8314902,19.9435652 32.8314902,17.6464006 L32.8314902,4.90757887 C32.8314902,2.61041429 34.8623041,0.730916001 37.3444099,0.730916001 L40.8419226,0.730916001 C43.3240284,0.730916001 45.3548422,2.61041429 45.3548422,4.90757887 L45.3548422,17.6464006 C45.3548422,19.9435652 43.3240284,21.8230635 40.8419226,21.8230635 L40.8419226,21.8230635 Z M37.3444099,2.81924743 C36.103357,2.81924743 35.08795,3.75899658 35.08795,4.90757887 L35.08795,17.6464006 C35.08795,18.7949829 36.103357,19.734732 37.3444099,19.734732 L40.8419226,19.734732 C42.0829755,19.734732 43.0983824,18.7949829 43.0983824,17.6464006 L43.0983824,4.90757887 C43.0983824,3.75899658 42.0829755,2.81924743 40.8419226,2.81924743 L37.3444099,2.81924743 L37.3444099,2.81924743 Z" id="XMLID_16_"></path>
                            </g>
                            <g transform="translate(11.282299, 42.810794)">
                                <rect id="XMLID_15_" x="0.338468972" y="0.62649943" width="5.07703457" height="2.08833143"></rect>
                                <rect id="XMLID_14_" x="0.338468972" y="12.425572" width="5.07703457" height="2.08833143"></rect>
                                <rect id="XMLID_13_" x="0.338468972" y="24.3290612" width="5.07703457" height="2.08833143"></rect>
                            </g>
                            <g transform="translate(28.205748, 42.810794)">
                                <rect id="XMLID_12_" x="0" y="0.62649943" width="5.07703457" height="2.08833143"></rect>
                                <rect id="XMLID_11_" x="0" y="12.425572" width="5.07703457" height="2.08833143"></rect>
                                <rect id="XMLID_10_" x="0" y="24.3290612" width="5.07703457" height="2.08833143"></rect>
                            </g>
                            <g transform="translate(44.000966, 42.810794)">
                                <rect id="XMLID_9_" x="0.902583924" y="0.62649943" width="5.07703457" height="2.08833143"></rect>
                                <rect id="XMLID_8_" x="0.902583924" y="12.425572" width="5.07703457" height="2.08833143"></rect>
                                <rect id="XMLID_7_" x="0.902583924" y="24.3290612" width="5.07703457" height="2.08833143"></rect>
                            </g>
                            <path d="M83.263367,90.5291676 C67.1296794,90.5291676 53.9293895,78.3124287 53.9293895,63.380859 C53.9293895,48.4492892 67.1296794,36.2325503 83.263367,36.2325503 C99.3970546,36.2325503 112.597345,48.4492892 112.597345,63.380859 C112.597345,78.3124287 99.5098776,90.5291676 83.263367,90.5291676 L83.263367,90.5291676 Z M83.263367,38.4252984 C68.3707322,38.4252984 56.1858493,49.7022881 56.1858493,63.4852755 C56.1858493,77.268263 68.3707322,88.5452527 83.263367,88.5452527 C98.1560017,88.5452527 110.340885,77.268263 110.340885,63.4852755 C110.340885,49.7022881 98.2688247,38.4252984 83.263367,38.4252984 L83.263367,38.4252984 Z" id="XMLID_4_"></path>
                            <rect id="XMLID_3_" x="82.1351371" y="50.4332041" width="2.25645981" height="17.1243177"></rect>
                            <rect id="XMLID_2_" x="83.263367" y="65.4691904" width="16.6978026" height="2.08833143"></rect>
                        </g>
                    </g>
                </g>
            </g>
        </g>
    </g>
</svg>