<?xml version="1.0" encoding="UTF-8" standalone="no"?>
<svg width="113px" height="92px" viewBox="0 0 113 92" version="1.1" xmlns="http://www.w3.org/2000/svg" xmlns:xlink="http://www.w3.org/1999/xlink" xmlns:sketch="http://www.bohemiancoding.com/sketch/ns">
    <!-- Generator: Sketch 3.3 (11970) - http://www.bohemiancoding.com/sketch -->
    <title>service1 copy</title>
    <desc>Created with Sketch.</desc>
    <defs></defs>
    <g id="Page-1" stroke="none" stroke-width="1" fill="none" fill-rule="evenodd" sketch:type="MSPage">
        <g id="How-It-Works" sketch:type="MSArtboardGroup" transform="translate(-154.000000, -583.000000)" fill="#14C4E4">
            <g id="Why-use-Copy" sketch:type="MSLayerGroup" transform="translate(0.000000, 512.000000)">
                <g id="school" transform="translate(85.000000, 70.333333)" sketch:type="MSShapeGroup">
                    <g id="service1-copy" transform="translate(69.087887, 0.650869)">
                        <path d="M56.4269022,91.9909996 L40.7445065,91.9909996 C32.5084282,91.9909996 32.5084282,91.9909996 32.5084282,90.8424173 C32.5084282,86.6657544 33.9751271,82.8023413 36.9085248,79.3565944 C26.9801016,73.3004333 20.8876602,62.649943 20.8876602,51.3729532 C20.8876602,48.2404561 21.3389521,45.1079589 22.354359,41.9754618 L8.25148522,41.9754618 C0.0154069145,41.9754618 0.0154069145,41.9754618 0.0154069145,40.8268795 C0.0154069145,33.3088863 5.09244149,26.5218092 13.1028738,23.0760623 C10.959237,20.6744812 9.83100709,17.6464006 9.83100709,14.4094869 C9.83100709,6.9959103 16.1490946,0.835332573 23.9338809,0.835332573 C31.7186672,0.835332573 38.0367547,6.89149373 38.0367547,14.4094869 C38.0367547,17.6464006 36.9085248,20.6744812 34.764888,23.0760623 C35.21618,23.2848955 35.7802949,23.4937286 36.2315869,23.8069783 C41.9855594,20.0479817 48.7549388,18.0640669 55.6371412,18.0640669 C62.8578126,18.0640669 69.852838,20.2568149 75.7196335,24.2246446 C76.5093945,23.8069783 77.2991554,23.389312 78.0889163,23.0760623 C75.9452795,20.6744812 74.8170496,17.6464006 74.8170496,14.4094869 C74.8170496,6.9959103 81.1351371,0.835332573 88.9199234,0.835332573 C96.7047098,0.835332573 103.022797,6.89149373 103.022797,14.4094869 C103.022797,17.6464006 101.894567,20.6744812 99.7509305,23.0760623 C107.761363,26.4173926 112.838397,33.3088863 112.838397,40.8268795 C112.838397,41.8710452 112.838397,41.8710452 104.038204,41.9754618 L88.9199234,41.9754618 C89.8225074,45.1079589 90.3866223,48.2404561 90.3866223,51.3729532 C90.3866223,62.3366932 84.8582958,72.4651007 75.3811646,78.730095 C78.5402083,82.1758419 80.3453762,86.4569213 80.3453762,90.8424173 C80.3453762,91.886583 80.3453762,91.886583 72.1092978,91.9909996 L56.4269022,91.9909996 L56.4269022,91.9909996 Z M34.764888,89.7982516 C40.8573295,89.9026682 71.8836519,89.9026682 77.9760934,89.7982516 C77.7504474,85.9348384 75.9452795,82.1758419 72.7862358,79.2521778 L71.8836519,78.3124287 L73.0118818,77.5815127 C82.489013,71.9430178 88.1301625,62.0234435 88.1301625,51.3729532 C88.1301625,47.9272064 87.5660475,44.5858761 86.3249947,41.2445458 L85.8737027,39.8871304 L87.4532246,39.8871304 C98.5098776,39.8871304 107.64854,39.8871304 110.581938,39.7827138 C110.130646,33.1000532 105.053611,27.1483086 97.4944707,24.4334778 L95.8021259,23.8069783 L97.0431787,22.658396 C99.4124615,20.465648 100.766337,17.541984 100.766337,14.3050703 C100.766337,8.04007601 95.4636569,2.81924743 88.9199234,2.81924743 C82.37619,2.81924743 77.0735094,7.93565944 77.0735094,14.3050703 C77.0735094,17.4375675 78.4273853,20.465648 80.7966681,22.658396 L82.037721,23.8069783 L80.3453762,24.4334778 C78.8786773,24.9555606 77.5248014,25.58206 76.1709255,26.4173926 L75.4939876,26.8350589 L74.8170496,26.4173926 C69.1759001,22.3451463 62.4065207,20.2568149 55.4114953,20.2568149 C48.6421158,20.2568149 42.2112054,22.2407298 36.6828788,25.9997263 L36.1187639,26.4173926 L35.4418259,26.1041429 C34.313596,25.4776435 33.2981891,25.0599772 32.1699592,24.6423109 L30.4776144,24.0158115 L31.7186672,22.8672292 C34.08795,20.6744812 35.4418259,17.7508172 35.4418259,14.5139035 C35.4418259,8.24890916 30.1391454,3.02808058 23.5954119,3.02808058 C17.0516785,3.02808058 11.7489979,8.14449259 11.7489979,14.5139035 C11.7489979,17.6464006 13.1028738,20.6744812 15.4721566,22.8672292 L16.7132095,24.0158115 L15.0208647,24.6423109 C7.80019326,27.1483086 2.72315869,33.1000532 2.27186672,39.7827138 C5.09244149,39.7827138 13.4413428,39.8871304 23.8210579,39.8871304 L25.4005798,39.8871304 L24.9492878,41.2445458 C23.8210579,44.5858761 23.14412,47.9272064 23.14412,51.3729532 C23.14412,62.3366932 29.2365615,72.6739338 39.1649846,78.3124287 L40.2932145,78.9389281 L39.3906306,79.8786773 C36.5700558,82.6979247 35.103357,86.1436716 34.764888,89.7982516 L34.764888,89.7982516 Z" id="XMLID_20_"></path>
                        <g id="Group">
                            <path d="M23.9338809,27.9836412 C16.1490946,27.9836412 9.83100709,21.92748 9.83100709,14.4094869 C9.83100709,6.89149373 16.1490946,0.835332573 23.9338809,0.835332573 C31.7186672,0.835332573 38.0367547,6.89149373 38.0367547,14.4094869 C38.0367547,21.92748 31.7186672,27.9836412 23.9338809,27.9836412 L23.9338809,27.9836412 Z M23.9338809,2.923664 C17.3901475,2.923664 12.0874669,8.04007601 12.0874669,14.4094869 C12.0874669,20.7788977 17.3901475,25.8953098 23.9338809,25.8953098 C30.4776144,25.8953098 35.7802949,20.7788977 35.7802949,14.4094869 C35.7802949,8.04007601 30.4776144,2.923664 23.9338809,2.923664 L23.9338809,2.923664 Z" id="XMLID_17_"></path>
                            <path d="M23.9338809,41.9754618 L8.25148522,41.9754618 C0.0154069145,41.9754618 0.0154069145,41.9754618 0.0154069145,40.8268795 C0.0154069145,33.3088863 5.09244149,26.5218092 13.1028738,23.0760623 C10.959237,20.6744812 9.83100709,17.6464006 9.83100709,14.4094869 C9.83100709,6.9959103 16.1490946,0.835332573 23.9338809,0.835332573 C31.7186672,0.835332573 38.0367547,6.89149373 38.0367547,14.4094869 C38.0367547,17.6464006 36.9085248,20.6744812 34.764888,23.0760623 C42.7753203,26.4173926 47.8523549,33.3088863 47.8523549,40.8268795 C47.8523549,41.8710452 47.8523549,41.8710452 39.6162766,41.9754618 L23.9338809,41.9754618 L23.9338809,41.9754618 Z M2.27186672,39.7827138 C8.36430821,39.8871304 39.3906306,39.8871304 45.4830721,39.7827138 C45.0317801,33.1000532 39.9547456,27.1483086 32.3956052,24.4334778 L30.7032603,23.8069783 L31.9443132,22.658396 C34.313596,20.465648 35.6674719,17.541984 35.6674719,14.3050703 C35.6674719,8.04007601 30.3647914,2.81924743 23.8210579,2.81924743 C17.2773245,2.81924743 11.9746439,7.93565944 11.9746439,14.3050703 C11.9746439,17.4375675 13.3285198,20.465648 15.6978026,22.658396 L16.9388555,23.8069783 L15.2465106,24.4334778 C7.80019326,27.1483086 2.72315869,33.1000532 2.27186672,39.7827138 L2.27186672,39.7827138 Z" id="XMLID_14_"></path>
                        </g>
                        <g id="Group" transform="translate(64.437334, 0.000000)">
                            <path d="M24.4825889,27.9836412 C16.6978026,27.9836412 10.3797151,21.92748 10.3797151,14.4094869 C10.3797151,6.89149373 16.6978026,0.835332573 24.4825889,0.835332573 C32.2673753,0.835332573 38.5854628,6.89149373 38.5854628,14.4094869 C38.5854628,21.92748 32.2673753,27.9836412 24.4825889,27.9836412 L24.4825889,27.9836412 Z M24.4825889,2.923664 C17.9388555,2.923664 12.6361749,8.04007601 12.6361749,14.4094869 C12.6361749,20.7788977 17.9388555,25.8953098 24.4825889,25.8953098 C31.0263224,25.8953098 36.3290029,20.7788977 36.3290029,14.4094869 C36.3290029,8.04007601 31.0263224,2.923664 24.4825889,2.923664 L24.4825889,2.923664 Z" id="XMLID_11_"></path>
                            <path d="M24.4825889,41.9754618 L8.80019326,41.9754618 C0.564114953,41.9754618 0.564114953,41.9754618 0.564114953,40.8268795 C0.564114953,33.3088863 5.64114953,26.5218092 13.6515819,23.0760623 C11.507945,20.6744812 10.3797151,17.6464006 10.3797151,14.4094869 C10.3797151,6.9959103 16.6978026,0.835332573 24.4825889,0.835332573 C32.2673753,0.835332573 38.5854628,6.89149373 38.5854628,14.4094869 C38.5854628,17.6464006 37.4572328,20.6744812 35.313596,23.0760623 C43.3240284,26.4173926 48.4010629,33.3088863 48.4010629,40.8268795 C48.4010629,41.8710452 48.4010629,41.8710452 40.1649846,41.9754618 L24.4825889,41.9754618 L24.4825889,41.9754618 Z M2.93339775,39.7827138 C9.02583924,39.8871304 40.0521616,39.8871304 46.1446031,39.7827138 C45.6933112,33.1000532 40.6162766,27.1483086 33.0571362,24.4334778 L31.3647914,23.8069783 L32.6058443,22.658396 C34.9751271,20.465648 36.3290029,17.541984 36.3290029,14.3050703 C36.3290029,8.04007601 31.0263224,2.81924743 24.4825889,2.81924743 C17.9388555,2.81924743 12.6361749,7.93565944 12.6361749,14.3050703 C12.6361749,17.4375675 13.9900508,20.465648 16.3593336,22.658396 L17.6003865,23.8069783 L15.9080417,24.4334778 C8.3489013,27.1483086 3.38468972,33.1000532 2.93339775,39.7827138 L2.93339775,39.7827138 Z" id="XMLID_8_"></path>
                        </g>
                        <g id="Group" transform="translate(31.718667, 50.119954)">
                            <path d="M24.7082349,27.8792246 C16.9234486,27.8792246 10.6053611,21.8230635 10.6053611,14.3050703 C10.6053611,6.89149373 16.9234486,0.730916001 24.7082349,0.730916001 C32.4930213,0.730916001 38.8111087,6.78707715 38.8111087,14.3050703 C38.8111087,21.7186469 32.4930213,27.8792246 24.7082349,27.8792246 L24.7082349,27.8792246 Z M24.7082349,2.81924743 C18.1645015,2.81924743 12.8618209,7.93565944 12.8618209,14.3050703 C12.8618209,20.6744812 18.1645015,25.7908932 24.7082349,25.7908932 C31.2519684,25.7908932 36.5546489,20.6744812 36.5546489,14.3050703 C36.5546489,7.93565944 31.2519684,2.81924743 24.7082349,2.81924743 L24.7082349,2.81924743 Z" id="XMLID_5_"></path>
                            <path d="M24.7082349,41.8710452 L9.02583924,41.8710452 C0.789760934,41.8710452 0.789760934,41.8710452 0.789760934,40.7224629 C0.789760934,33.2044698 5.86679551,26.4173926 13.8772278,22.9716458 C11.733591,20.5700646 10.6053611,17.541984 10.6053611,14.3050703 C10.6053611,6.89149373 16.9234486,0.730916001 24.7082349,0.730916001 C32.4930213,0.730916001 38.8111087,6.78707715 38.8111087,14.3050703 C38.8111087,17.541984 37.6828788,20.5700646 35.539242,22.9716458 C43.5496743,26.312976 48.6267089,33.2044698 48.6267089,40.7224629 C48.6267089,41.7666286 48.6267089,41.7666286 40.3906306,41.8710452 L24.7082349,41.8710452 L24.7082349,41.8710452 Z M3.04622074,39.6782972 C9.13866223,39.7827138 40.1649846,39.7827138 46.2574261,39.6782972 C45.8061341,32.9956366 40.7290996,27.043892 33.1699592,24.3290612 L31.5904373,23.8069783 L32.8314902,22.658396 C35.200773,20.465648 36.5546489,17.541984 36.5546489,14.3050703 C36.5546489,8.04007601 31.2519684,2.81924743 24.7082349,2.81924743 C18.1645015,2.81924743 12.8618209,7.93565944 12.8618209,14.3050703 C12.8618209,17.4375675 14.2156968,20.465648 16.5849796,22.658396 L17.8260325,23.8069783 L16.1336876,24.4334778 C8.57454728,27.043892 3.49751271,32.9956366 3.04622074,39.6782972 L3.04622074,39.6782972 Z" id="XMLID_2_"></path>
                        </g>
                    </g>
                </g>
            </g>
        </g>
    </g>
</svg>