<?xml version="1.0" encoding="UTF-8" standalone="no"?>
<svg width="103px" height="93px" viewBox="0 0 103 93" version="1.1" xmlns="http://www.w3.org/2000/svg" xmlns:xlink="http://www.w3.org/1999/xlink" xmlns:sketch="http://www.bohemiancoding.com/sketch/ns">
    <!-- Generator: Sketch 3.3 (11970) - http://www.bohemiancoding.com/sketch -->
    <title>home_service3</title>
    <desc>Created with Sketch.</desc>
    <defs></defs>
    <g id="Page-1" stroke="none" stroke-width="1" fill="none" fill-rule="evenodd" sketch:type="MSPage">
        <g id="How-It-Works" sketch:type="MSArtboardGroup" transform="translate(-602.000000, -583.000000)" fill="#F2624D">
            <g id="Why-use-Copy" sketch:type="MSLayerGroup" transform="translate(0.000000, 512.000000)">
                <g id="job" transform="translate(514.000000, 71.078431)" sketch:type="MSShapeGroup">
                    <g id="home_service3" transform="translate(88.678995, 0.469886)">
                        <g id="Group">
                            <g id="XMLID_9_">
                                <path d="M46.3702491,91.6777499 L11.733591,91.6777499 C5.18985756,91.6777499 0,87.1878373 0,81.7581756 L0,10.1284074 C0,4.69874572 5.30268055,0.208833143 11.733591,0.208833143 L46.3702491,0.208833143 C52.9139825,0.208833143 58.1038401,4.69874572 58.1038401,10.1284074 L58.1038401,25.6864766 L55.8473803,25.6864766 L55.8473803,10.1284074 C55.8473803,5.84732801 51.5601067,2.29716458 46.3702491,2.29716458 L11.733591,2.29716458 C6.43091046,2.29716458 2.25645981,5.84732801 2.25645981,10.1284074 L2.25645981,81.7581756 C2.25645981,86.039255 6.54373345,89.5894184 11.733591,89.5894184 L46.3702491,89.5894184 C51.6729297,89.5894184 55.8473803,86.039255 55.8473803,81.7581756 L55.8473803,62.5455264 L58.1038401,62.5455264 L58.1038401,81.7581756 C58.1038401,87.1878373 52.8011596,91.6777499 46.3702491,91.6777499 L46.3702491,91.6777499 Z" id="XMLID_29_"></path>
                            </g>
                            <g id="XMLID_8_" transform="translate(2.256460, 10.441657)">
                                <rect id="XMLID_28_" x="0" y="0.208833143" width="53.2524515" height="2.08833143"></rect>
                            </g>
                            <g id="XMLID_7_" transform="translate(21.436368, 5.220829)">
                                <rect id="XMLID_27_" x="0.676937943" y="0.939749144" width="13.3131129" height="2.08833143"></rect>
                            </g>
                            <g id="XMLID_6_" transform="translate(2.256460, 77.268263)">
                                <rect id="XMLID_26_" x="0" y="0.417666286" width="53.2524515" height="2.08833143"></rect>
                            </g>
                            <g id="XMLID_5_" transform="translate(24.821058, 80.400760)">
                                <path d="M3.94880467,7.41357658 C1.80516785,7.41357658 0,5.74291144 0,3.75899658 C0,1.77508172 1.80516785,0.104416572 3.94880467,0.104416572 C6.09244149,0.104416572 7.89760934,1.77508172 7.89760934,3.75899658 C7.89760934,5.74291144 6.20526448,7.41357658 3.94880467,7.41357658 L3.94880467,7.41357658 Z M3.94880467,2.29716458 C3.04622074,2.29716458 2.25645981,3.02808058 2.25645981,3.86341315 C2.25645981,4.69874572 3.04622074,5.42966172 3.94880467,5.42966172 C4.85138859,5.42966172 5.64114953,4.69874572 5.64114953,3.86341315 C5.64114953,3.02808058 4.96421158,2.29716458 3.94880467,2.29716458 L3.94880467,2.29716458 Z" id="XMLID_23_"></path>
                            </g>
                            <g id="XMLID_4_" transform="translate(54.155035, 40.722463)">
                                <path d="M4.17445065,7.41357658 C2.25645981,7.41357658 0.564114953,5.95174458 0.564114953,4.17666286 C0.564114953,2.40158115 2.14363682,0.939749144 4.17445065,0.939749144 C6.20526448,0.939749144 7.78478634,2.40158115 7.78478634,4.17666286 C7.78478634,5.95174458 6.09244149,7.41357658 4.17445065,7.41357658 L4.17445065,7.41357658 Z M4.17445065,2.923664 C3.49751271,2.923664 2.82057476,3.44574686 2.82057476,4.07224629 C2.82057476,4.69874572 3.38468972,5.22082858 4.17445065,5.22082858 C4.96421158,5.22082858 5.52832653,4.69874572 5.52832653,4.07224629 C5.52832653,3.44574686 4.85138859,2.923664 4.17445065,2.923664 L4.17445065,2.923664 Z" id="XMLID_20_"></path>
                            </g>
                            <g id="XMLID_3_" transform="translate(65.437334, 40.722463)">
                                <path d="M4.17445065,7.41357658 C2.25645981,7.41357658 0.564114953,5.95174458 0.564114953,4.17666286 C0.564114953,2.40158115 2.14363682,0.939749144 4.17445065,0.939749144 C6.20526448,0.939749144 7.78478634,2.40158115 7.78478634,4.17666286 C7.78478634,5.95174458 6.20526448,7.41357658 4.17445065,7.41357658 L4.17445065,7.41357658 Z M4.17445065,2.923664 C3.49751271,2.923664 2.82057476,3.44574686 2.82057476,4.07224629 C2.82057476,4.69874572 3.38468972,5.22082858 4.17445065,5.22082858 C4.96421158,5.22082858 5.52832653,4.69874572 5.52832653,4.07224629 C5.52832653,3.44574686 4.96421158,2.923664 4.17445065,2.923664 L4.17445065,2.923664 Z" id="XMLID_17_"></path>
                            </g>
                            <g id="XMLID_2_" transform="translate(76.591404, 40.722463)">
                                <path d="M3.62574261,7.41357658 C1.70775177,7.41357658 0.0154069145,5.95174458 0.0154069145,4.17666286 C0.0154069145,2.40158115 1.59492878,0.939749144 3.62574261,0.939749144 C5.65655644,0.939749144 7.23607831,2.40158115 7.23607831,4.17666286 C7.23607831,5.95174458 5.54373345,7.41357658 3.62574261,7.41357658 L3.62574261,7.41357658 Z M3.62574261,2.923664 C2.94880467,2.923664 2.27186672,3.44574686 2.27186672,4.07224629 C2.27186672,4.69874572 2.83598168,5.22082858 3.62574261,5.22082858 C4.41550354,5.22082858 4.9796185,4.69874572 4.9796185,4.07224629 C4.9796185,3.44574686 4.30268055,2.923664 3.62574261,2.923664 L3.62574261,2.923664 Z" id="XMLID_14_"></path>
                            </g>
                            <g id="XMLID_1_" transform="translate(35.103357, 22.971646)">
                                <path d="M1,45.5256252 L7.31808747,31.8470543 C4.72315869,28.7145572 3.48210579,25.1643938 3.48210579,21.6142303 C3.48210579,9.9195743 17.5849796,0.313249715 34.9597201,0.313249715 C52.3344607,0.313249715 66.4373345,9.81515773 66.4373345,21.5098138 C66.4373345,33.2044698 52.3344607,42.8107944 34.9597201,42.8107944 C30.1083316,42.8107944 25.5954119,42.0798784 21.3081383,40.7224629 L1,45.5256252 L1,45.5256252 Z M34.9597201,2.29716458 C18.8260325,2.29716458 5.7385656,10.8593234 5.7385656,21.5098138 C5.7385656,24.851144 7.09244149,28.0880578 9.57454728,30.9073052 L10.0258392,31.4293881 L4.94880467,42.3931281 L21.4209613,38.5297149 L21.7594303,38.6341315 C25.9338809,39.9915469 30.3339775,40.7224629 34.9597201,40.7224629 C51.0934078,40.7224629 64.1808747,32.0558875 64.1808747,21.5098138 C64.1808747,10.96374 51.0934078,2.29716458 34.9597201,2.29716458 L34.9597201,2.29716458 Z" id="XMLID_11_"></path>
                            </g>
                        </g>
                    </g>
                </g>
            </g>
        </g>
    </g>
</svg>