<?xml version="1.0" encoding="utf-8"?>
<!-- Generator: Adobe Illustrator 16.0.0, SVG Export Plug-In . SVG Version: 6.00 Build 0)  -->
<!DOCTYPE svg PUBLIC "-//W3C//DTD SVG 1.1//EN" "http://www.w3.org/Graphics/SVG/1.1/DTD/svg11.dtd">
<svg version="1.1" id="Layer_1" xmlns="http://www.w3.org/2000/svg" xmlns:xlink="http://www.w3.org/1999/xlink" x="0px" y="0px"
	 width="14.992px" height="9.908px" viewBox="0 0 14.992 9.908" enable-background="new 0 0 14.992 9.908" xml:space="preserve">
<g>
	<g>
		<path fill="#FFFFFF" d="M13.552,9.817H1.438C0.646,9.817,0,9.173,0,8.381V1.383c0-0.792,0.646-1.437,1.438-1.437h12.115
			c0.795,0,1.438,0.645,1.438,1.437v6.998C14.992,9.173,14.347,9.817,13.552,9.817z M1.438,0.428c-0.527,0-0.958,0.429-0.958,0.955
			v6.998c0,0.527,0.431,0.957,0.958,0.957h12.115c0.528,0,0.958-0.43,0.958-0.957V1.383c0-0.526-0.43-0.955-0.958-0.955H1.438z"/>
	</g>
	<g>
		<path fill="#FFFFFF" d="M12.412,2.91H7.496c-0.133,0-0.24-0.108-0.24-0.241s0.107-0.24,0.24-0.24h4.916
			c0.133,0,0.24,0.107,0.24,0.24S12.542,2.91,12.412,2.91z"/>
	</g>
	<g>
		<path fill="#FFFFFF" d="M12.412,5.123H7.496c-0.133,0-0.24-0.108-0.24-0.24c0-0.133,0.107-0.241,0.24-0.241h4.916
			c0.133,0,0.24,0.108,0.24,0.241C12.652,5.015,12.542,5.123,12.412,5.123z"/>
	</g>
	<g>
		<path fill="#FFFFFF" d="M12.412,7.385H2.496c-0.132,0-0.24-0.104-0.24-0.237s0.108-0.242,0.24-0.242h9.916
			c0.131,0,0.24,0.109,0.24,0.242S12.542,7.385,12.412,7.385z"/>
	</g>
	<g>
		<path fill="#FFFFFF" d="M4.99,5.465H2.941c-0.339,0-0.615-0.276-0.615-0.614v-2.05c0-0.339,0.276-0.615,0.615-0.615H4.99
			c0.338,0,0.615,0.275,0.615,0.615v2.05C5.604,5.188,5.328,5.465,4.99,5.465z M2.941,2.667c-0.075,0-0.135,0.059-0.135,0.134v2.05
			c0,0.073,0.061,0.133,0.135,0.133H4.99c0.073,0,0.134-0.06,0.134-0.133v-2.05c0-0.075-0.061-0.134-0.134-0.134H2.941z"/>
	</g>
</g>
</svg>
